<svg width="657.9px" height="122px" xmlns="http://www.w3.org/2000/svg" viewBox="-78.94687499999998 14 657.89375 122" style="background: rgb(253, 253, 253)" preserveAspectRatio="xMidYMid"><defs><linearGradient id="editing-gradow-gradient" x1="0" x2="1" y1="0.5" y2="0.5" gradientUnits="objectBoundingBox"><stop offset="0" stop-color="#0c456c"></stop><stop offset="1" stop-color="#6f7478"></stop></linearGradient><filter id="editing-gradow-filter" x="-100%" y="-100%" width="300%" height="300%"><feFlood flood-color="#dce4eb" result="flood"></feFlood><feComposite operator="in" in2="SourceAlpha" in="flood" result="shadow"></feComposite><feOffset dx="1.2" dy="-4" in="SourceGraphic" result="offset-1"></feOffset><feOffset dx="-1.2" dy="4" in="shadow" result="offset-2"></feOffset><feMerge><feMergeNode in="offset-2"></feMergeNode><feMergeNode in="offset-1"></feMergeNode></feMerge></filter></defs><g filter="url(#editing-gradow-filter)"><g transform="matrix(1.2,0,0,1.2,-24.1,110.3)"><path d="M 7.4 -5 L -6.6 -5 L 1.6 -47.2 L 15.7 -47.2 L 7.4 -5 Z M 63.1 -3.7 L 63.1 -3.7 L 63.1 -3.7 Q 55.4 -3.7 55.4 -9.7 L 55.4 -9.7 L 55.4 -9.7 Q 55.4 -12.3 56.5 -17.4 L 56.5 -17.4 L 56.5 -17.4 Q 57.6 -22.5 58 -24.5 L 58 -24.5 L 58 -24.5 Q 58.9 -29.2 58.9 -30.7 L 58.9 -30.7 L 58.9 -30.7 Q 58.9 -34 56.5 -34 L 56.5 -34 L 56.5 -34 Q 54.9 -34 53.4 -31.7 L 53.4 -31.7 L 53.4 -31.7 Q 51.8 -29.5 51.1 -25.1 L 51.1 -25.1 L 47.1 -5 L 34.7 -3.7 L 38.1 -21.1 L 38.1 -21.1 Q 38.7 -24 39.2 -27.2 L 39.2 -27.2 L 39.2 -27.2 Q 39.7 -30.5 39.7 -31 L 39.7 -31 L 39.7 -31 Q 39.7 -34 37.5 -34 L 37.5 -34 L 37.5 -34 Q 36.1 -34 34.5 -31.8 L 34.5 -31.8 L 34.5 -31.8 Q 32.9 -29.6 32 -25.1 L 32 -25.1 L 28.1 -5 L 15.5 -3.7 L 22.2 -37.6 L 32.6 -38.9 L 31.5 -32.4 L 31.5 -32.4 Q 33.2 -35.9 36.3 -37.4 L 36.3 -37.4 L 36.3 -37.4 Q 39.3 -38.9 44.1 -38.9 L 44.1 -38.9 L 44.1 -38.9 Q 46.9 -38.9 48.7 -37.5 L 48.7 -37.5 L 48.7 -37.5 Q 50.5 -36.2 51 -34 L 51 -34 L 51 -34 Q 52.1 -36.3 54.9 -37.6 L 54.9 -37.6 L 54.9 -37.6 Q 57.7 -38.9 61.1 -38.9 L 61.1 -38.9 L 61.1 -38.9 Q 64.6 -38.9 66.2 -38.1 L 66.2 -38.1 L 66.2 -38.1 Q 67.9 -37.4 69 -36.2 L 69 -36.2 L 69 -36.2 Q 70.7 -34 70.7 -29.9 L 70.7 -29.9 L 70.7 -29.9 Q 70.7 -25.8 69 -17.4 L 69 -17.4 L 69 -17.4 Q 68.1 -13.3 68.1 -11.8 L 68.1 -11.8 L 68.1 -11.8 Q 68.1 -10.3 68.9 -9.4 L 68.9 -9.4 L 68.9 -9.4 Q 69.8 -8.5 71.1 -8.4 L 71.1 -8.4 L 71.1 -8.4 Q 70.4 -6.2 68.2 -5 L 68.2 -5 L 68.2 -5 Q 66 -3.7 63.1 -3.7 Z M 78.8 -6.9 L 78.8 -6.9 L 78.8 -6.9 Q 77.3 -8.5 76.6 -11.2 L 76.6 -11.2 L 76.6 -11.2 Q 75.9 -13.8 75.9 -18.1 L 75.9 -18.1 L 75.9 -18.1 Q 75.9 -22.4 77.4 -26.3 L 77.4 -26.3 L 77.4 -26.3 Q 78.9 -30.2 81.6 -33 L 81.6 -33 L 81.6 -33 Q 87.1 -38.9 96.2 -38.9 L 96.2 -38.9 L 96.2 -38.9 Q 99.4 -38.9 101.8 -37.8 L 101.8 -37.8 L 112.7 -38.9 L 108 -13.9 L 108 -13.9 Q 107.8 -13.2 107.8 -11.7 L 107.8 -11.7 L 107.8 -11.7 Q 107.8 -10.3 108.7 -9.4 L 108.7 -9.4 L 108.7 -9.4 Q 109.5 -8.5 110.8 -8.4 L 110.8 -8.4 L 110.8 -8.4 Q 110.2 -6.2 107.8 -5 L 107.8 -5 L 107.8 -5 Q 105.5 -3.7 102.9 -3.7 L 102.9 -3.7 L 102.9 -3.7 Q 100.3 -3.7 98.5 -4.7 L 98.5 -4.7 L 98.5 -4.7 Q 96.7 -5.7 96.2 -7.3 L 96.2 -7.3 L 96.2 -7.3 Q 95.2 -5.7 93 -4.7 L 93 -4.7 L 93 -4.7 Q 90.9 -3.7 87.9 -3.7 L 87.9 -3.7 L 87.9 -3.7 Q 85 -3.7 82.7 -4.5 L 82.7 -4.5 L 82.7 -4.5 Q 80.3 -5.2 78.8 -6.9 Z M 92.3 -32.9 L 92.3 -32.9 L 92.3 -32.9 Q 91.6 -31.7 90.9 -29.8 L 90.9 -29.8 L 90.9 -29.8 Q 90.3 -27.8 89.2 -22.6 L 89.2 -22.6 L 89.2 -22.6 Q 88.2 -17.4 88.2 -13.7 L 88.2 -13.7 L 88.2 -13.7 Q 88.2 -10 88.7 -8.9 L 88.7 -8.9 L 88.7 -8.9 Q 89.3 -7.8 90.3 -7.8 L 90.3 -7.8 L 90.3 -7.8 Q 92.4 -7.8 93.9 -9.7 L 93.9 -9.7 L 93.9 -9.7 Q 95.4 -11.7 96 -15.1 L 96 -15.1 L 99.4 -33.9 L 99.4 -33.9 Q 98 -35 96.5 -35 L 96.5 -35 L 96.5 -35 Q 94.9 -35 94 -34.5 L 94 -34.5 L 94 -34.5 Q 93 -34 92.3 -32.9 Z M 120.5 -31.7 L 120.5 -31.7 L 120.5 -31.7 Q 122.7 -34.8 126 -36.8 L 126 -36.8 L 126 -36.8 Q 129.3 -38.9 133.3 -38.9 L 133.3 -38.9 L 133.3 -38.9 Q 137.3 -38.9 139.2 -37.6 L 139.2 -37.6 L 151.8 -38.9 L 147.4 -14.3 L 147.4 -14.3 Q 145.2 -1.8 140.5 3.2 L 140.5 3.2 L 140.5 3.2 Q 135.9 7.8 127.1 7.8 L 127.1 7.8 L 127.1 7.8 Q 120.4 7.8 116.5 5.7 L 116.5 5.7 L 116.5 5.7 Q 112.7 3.6 112.7 0.1 L 112.7 0.1 L 112.7 0.1 Q 112.7 -2.5 114.7 -4 L 114.7 -4 L 114.7 -4 Q 116.6 -5.5 119.7 -5.5 L 119.7 -5.5 L 119.7 -5.5 Q 122.4 -5.5 124.5 -4.3 L 124.5 -4.3 L 124.5 -4.3 Q 125.7 -3.7 126.2 -2.8 L 126.2 -2.8 L 126.2 -2.8 Q 124.8 -1.5 124.8 0.6 L 124.8 0.6 L 124.8 0.6 Q 124.8 3.4 127.3 3.4 L 127.3 3.4 L 127.3 3.4 Q 131.6 3.4 134.1 -6.8 L 134.1 -6.8 L 134.1 -6.8 Q 134.8 -9.5 135.3 -12.3 L 135.3 -12.3 L 135.3 -12.3 Q 132.5 -8.7 125.9 -8.7 L 125.9 -8.7 L 125.9 -8.7 Q 121.4 -8.7 118.8 -10.9 L 118.8 -10.9 L 118.8 -10.9 Q 116.1 -13.1 116.1 -18.2 L 116.1 -18.2 L 116.1 -18.2 Q 116.1 -21.4 117.2 -25 L 117.2 -25 L 117.2 -25 Q 118.3 -28.6 120.5 -31.7 Z M 128.8 -18 L 128.8 -18 L 128.8 -18 Q 128.8 -13.7 131 -13.7 L 131 -13.7 L 131 -13.7 Q 132.6 -13.7 134.1 -15.3 L 134.1 -15.3 L 134.1 -15.3 Q 135.2 -16.7 135.7 -18.7 L 135.7 -18.7 L 138.9 -35.1 L 138.9 -35.1 Q 138.6 -35.2 138.3 -35.3 L 138.3 -35.3 L 138.3 -35.3 Q 137.6 -35.6 136.8 -35.6 L 136.8 -35.6 L 136.8 -35.6 Q 132.9 -35.6 130.6 -29.2 L 130.6 -29.2 L 130.6 -29.2 Q 128.8 -24.2 128.8 -18 Z M 180.2 -15.8 L 180.2 -15.8 L 180.2 -15.8 Q 181.8 -14.7 181.8 -12.3 L 181.8 -12.3 L 181.8 -12.3 Q 181.8 -9.9 180.6 -8.4 L 180.6 -8.4 L 180.6 -8.4 Q 179.4 -6.8 177.4 -5.8 L 177.4 -5.8 L 177.4 -5.8 Q 173.3 -3.7 168.9 -3.7 L 168.9 -3.7 L 168.9 -3.7 Q 164.5 -3.7 161.9 -4.6 L 161.9 -4.6 L 161.9 -4.6 Q 159.3 -5.6 157.5 -7.4 L 157.5 -7.4 L 157.5 -7.4 Q 154.2 -10.8 154.2 -17 L 154.2 -17 L 154.2 -17 Q 154.2 -26.7 159.4 -32.5 L 159.4 -32.5 L 159.4 -32.5 Q 165 -38.9 174.8 -38.9 L 174.8 -38.9 L 174.8 -38.9 Q 180.9 -38.9 183.9 -36.3 L 183.9 -36.3 L 183.9 -36.3 Q 186.2 -34.4 186.2 -31.3 L 186.2 -31.3 L 186.2 -31.3 Q 186.2 -20 166.7 -20 L 166.7 -20 L 166.7 -20 Q 166.4 -18.3 166.4 -16.9 L 166.4 -16.9 L 166.4 -16.9 Q 166.4 -14 167.8 -12.9 L 167.8 -12.9 L 167.8 -12.9 Q 169.1 -11.7 171.5 -11.7 L 171.5 -11.7 L 171.5 -11.7 Q 173.9 -11.7 176.5 -12.9 L 176.5 -12.9 L 176.5 -12.9 Q 179.1 -14 180.2 -15.8 Z M 167.1 -22.8 L 167.1 -22.8 L 167.1 -22.8 Q 171.7 -22.8 174.3 -25.6 L 174.3 -25.6 L 174.3 -25.6 Q 176.9 -28.3 176.9 -32.5 L 176.9 -32.5 L 176.9 -32.5 Q 176.9 -34 176.4 -34.8 L 176.4 -34.8 L 176.4 -34.8 Q 175.8 -35.6 174.8 -35.6 L 174.8 -35.6 L 174.8 -35.6 Q 173.7 -35.6 172.7 -35.2 L 172.7 -35.2 L 172.7 -35.2 Q 171.8 -34.8 170.9 -33.4 L 170.9 -33.4 L 170.9 -33.4 Q 168.5 -30.2 167.1 -22.8 Z M 207.5 -27.4 L 207.5 -27.4 L 207.5 -27.4 Q 208.4 -29.8 208.4 -31.8 L 208.4 -31.8 L 208.4 -31.8 Q 208.4 -35.6 205.3 -35.6 L 205.3 -35.6 L 205.3 -35.6 Q 203.7 -35.6 202.4 -34.2 L 202.4 -34.2 L 202.4 -34.2 Q 201.1 -32.7 201.1 -30.9 L 201.1 -30.9 L 201.1 -30.9 Q 201.1 -29.7 202.1 -28.6 L 202.1 -28.6 L 202.1 -28.6 Q 203.6 -27.2 207.3 -24.9 L 207.3 -24.9 L 207.3 -24.9 Q 211.1 -22.6 212.6 -20.7 L 212.6 -20.7 L 212.6 -20.7 Q 214 -18.9 214 -16.3 L 214 -16.3 L 214 -16.3 Q 214 -13.7 212.7 -11.3 L 212.7 -11.3 L 212.7 -11.3 Q 211.5 -8.9 209.3 -7.3 L 209.3 -7.3 L 209.3 -7.3 Q 204.5 -3.7 196.8 -3.7 L 196.8 -3.7 L 196.8 -3.7 Q 192.6 -3.7 189.4 -5.9 L 189.4 -5.9 L 189.4 -5.9 Q 186.2 -8 186.2 -10.5 L 186.2 -10.5 L 186.2 -10.5 Q 186.2 -13 188 -14.4 L 188 -14.4 L 188 -14.4 Q 189.9 -15.9 192.6 -15.9 L 192.6 -15.9 L 192.6 -15.9 Q 195.2 -15.9 196.9 -14.9 L 196.9 -14.9 L 196.9 -14.9 Q 196.1 -12.8 196.1 -11.4 L 196.1 -11.4 L 196.1 -11.4 Q 196.1 -7.1 199.7 -7.1 L 199.7 -7.1 L 199.7 -7.1 Q 201.2 -7.1 202.2 -8.1 L 202.2 -8.1 L 202.2 -8.1 Q 203.2 -9.1 203.2 -10.7 L 203.2 -10.7 L 203.2 -10.7 Q 203.2 -14 197.7 -17.4 L 197.7 -17.4 L 197.7 -17.4 Q 193.3 -20.4 192.2 -21.5 L 192.2 -21.5 L 192.2 -21.5 Q 190.5 -23.6 190.5 -26.1 L 190.5 -26.1 L 190.5 -26.1 Q 190.5 -28.7 191.7 -31.1 L 191.7 -31.1 L 191.7 -31.1 Q 192.9 -33.6 195.2 -35.3 L 195.2 -35.3 L 195.2 -35.3 Q 199.8 -38.9 208 -38.9 L 208 -38.9 L 208 -38.9 Q 212.1 -38.9 214.6 -37.2 L 214.6 -37.2 L 214.6 -37.2 Q 217.1 -35.6 217.1 -32.7 L 217.1 -32.7 L 217.1 -32.7 Q 217.1 -29.9 215.4 -28.3 L 215.4 -28.3 L 215.4 -28.3 Q 213.7 -26.7 210.6 -26.7 L 210.6 -26.7 L 210.6 -26.7 Q 208.5 -26.7 207.5 -27.4 Z M 258.5 -25.6 L 271.5 -26.7 L 271.5 -26.7 Q 266.9 -16.6 266.9 -4.9 L 266.9 -4.9 L 266.9 -4.9 Q 265.1 -3.7 262.6 -3.7 L 262.6 -3.7 L 262.6 -3.7 Q 260.1 -3.7 258.5 -4.9 L 258.5 -4.9 L 258.5 -4.9 Q 256.9 -6.1 256.6 -7.3 L 256.6 -7.3 L 256.6 -7.3 Q 255 -5.6 252.4 -4.6 L 252.4 -4.6 L 252.4 -4.6 Q 249.8 -3.7 247 -3.7 L 247 -3.7 L 247 -3.7 Q 244.3 -3.7 241.9 -4.6 L 241.9 -4.6 L 241.9 -4.6 Q 239.5 -5.5 237.6 -7.5 L 237.6 -7.5 L 237.6 -7.5 Q 233.5 -11.8 233.5 -20.1 L 233.5 -20.1 L 233.5 -20.1 Q 233.5 -32.9 240.4 -40.5 L 240.4 -40.5 L 240.4 -40.5 Q 247.4 -48.5 259.9 -48.5 L 259.9 -48.5 L 259.9 -48.5 Q 268.5 -48.5 271.6 -44 L 271.6 -44 L 271.6 -44 Q 272.6 -42.6 272.6 -40.9 L 272.6 -40.9 L 272.6 -40.9 Q 272.6 -39.2 271.8 -37.8 L 271.8 -37.8 L 271.8 -37.8 Q 271.1 -36.3 269.9 -35.2 L 269.9 -35.2 L 269.9 -35.2 Q 267.2 -32.6 263.8 -32.6 L 263.8 -32.6 L 263.8 -32.6 Q 262.4 -32.6 261.2 -33.1 L 261.2 -33.1 L 261.2 -33.1 Q 261.4 -35 261.4 -37.2 L 261.4 -37.2 L 261.4 -37.2 Q 261.4 -39.5 261.3 -40.5 L 261.3 -40.5 L 261.3 -40.5 Q 261.1 -41.5 260.7 -42.3 L 260.7 -42.3 L 260.7 -42.3 Q 259.9 -44.1 258.1 -44.1 L 258.1 -44.1 L 258.1 -44.1 Q 256.2 -44.1 254.2 -42.1 L 254.2 -42.1 L 254.2 -42.1 Q 252.2 -40.2 250.6 -37 L 250.6 -37 L 250.6 -37 Q 247.1 -29.8 247.1 -21.2 L 247.1 -21.2 L 247.1 -21.2 Q 247.1 -17.2 248.6 -14.4 L 248.6 -14.4 L 248.6 -14.4 Q 250.3 -11.3 253.2 -11.3 L 253.2 -11.3 L 253.2 -11.3 Q 254.2 -11.3 255.2 -11.8 L 255.2 -11.8 L 255.2 -11.8 Q 256.1 -12.3 256.5 -12.7 L 256.5 -12.7 L 258.5 -25.6 Z M 277.4 -6.9 L 277.4 -6.9 L 277.4 -6.9 Q 275.9 -8.5 275.2 -11.2 L 275.2 -11.2 L 275.2 -11.2 Q 274.5 -13.8 274.5 -18.1 L 274.5 -18.1 L 274.5 -18.1 Q 274.5 -22.4 276 -26.3 L 276 -26.3 L 276 -26.3 Q 277.5 -30.2 280.2 -33 L 280.2 -33 L 280.2 -33 Q 285.7 -38.9 294.8 -38.9 L 294.8 -38.9 L 294.8 -38.9 Q 298 -38.9 300.4 -37.8 L 300.4 -37.8 L 311.3 -38.9 L 306.6 -13.9 L 306.6 -13.9 Q 306.4 -13.2 306.4 -11.7 L 306.4 -11.7 L 306.4 -11.7 Q 306.4 -10.3 307.3 -9.4 L 307.3 -9.4 L 307.3 -9.4 Q 308.1 -8.5 309.4 -8.4 L 309.4 -8.4 L 309.4 -8.4 Q 308.8 -6.2 306.4 -5 L 306.4 -5 L 306.4 -5 Q 304.1 -3.7 301.5 -3.7 L 301.5 -3.7 L 301.5 -3.7 Q 298.9 -3.7 297.1 -4.7 L 297.1 -4.7 L 297.1 -4.7 Q 295.3 -5.7 294.8 -7.3 L 294.8 -7.3 L 294.8 -7.3 Q 293.8 -5.7 291.6 -4.7 L 291.6 -4.7 L 291.6 -4.7 Q 289.4 -3.7 286.5 -3.7 L 286.5 -3.7 L 286.5 -3.7 Q 283.6 -3.7 281.3 -4.5 L 281.3 -4.5 L 281.3 -4.5 Q 278.9 -5.2 277.4 -6.9 Z M 290.9 -32.9 L 290.9 -32.9 L 290.9 -32.9 Q 290.2 -31.7 289.5 -29.8 L 289.5 -29.8 L 289.5 -29.8 Q 288.9 -27.8 287.8 -22.6 L 287.8 -22.6 L 287.8 -22.6 Q 286.8 -17.4 286.8 -13.7 L 286.8 -13.7 L 286.8 -13.7 Q 286.8 -10 287.3 -8.9 L 287.3 -8.9 L 287.3 -8.9 Q 287.9 -7.8 288.9 -7.8 L 288.9 -7.8 L 288.9 -7.8 Q 291 -7.8 292.5 -9.7 L 292.5 -9.7 L 292.5 -9.7 Q 294 -11.7 294.6 -15.1 L 294.6 -15.1 L 298 -33.9 L 298 -33.9 Q 296.6 -35 295 -35 L 295 -35 L 295 -35 Q 293.5 -35 292.6 -34.5 L 292.6 -34.5 L 292.6 -34.5 Q 291.6 -34 290.9 -32.9 Z M 330.1 -8.5 L 330.1 -8.5 L 330.1 -8.5 Q 328.1 -3.7 321.8 -3.7 L 321.8 -3.7 L 321.8 -3.7 Q 318.6 -3.7 316.5 -5.9 L 316.5 -5.9 L 316.5 -5.9 Q 314.9 -7.8 314.9 -9.9 L 314.9 -9.9 L 314.9 -9.9 Q 314.9 -14.7 317.1 -25.2 L 317.1 -25.2 L 321.8 -49.8 L 334.8 -51 L 328.6 -18.7 L 328.6 -18.7 Q 327.5 -13.9 327.5 -12.3 L 327.5 -12.3 L 327.5 -12.3 Q 327.5 -8.6 330.1 -8.5 Z M 350.8 -8.5 L 350.8 -8.5 L 350.8 -8.5 Q 348.8 -3.7 342.5 -3.7 L 342.5 -3.7 L 342.5 -3.7 Q 339.3 -3.7 337.3 -5.9 L 337.3 -5.9 L 337.3 -5.9 Q 335.6 -7.8 335.6 -9.9 L 335.6 -9.9 L 335.6 -9.9 Q 335.6 -14.7 337.8 -25.2 L 337.8 -25.2 L 342.5 -49.8 L 355.5 -51 L 349.3 -18.7 L 349.3 -18.7 Q 348.2 -13.9 348.2 -12.3 L 348.2 -12.3 L 348.2 -12.3 Q 348.2 -8.6 350.8 -8.5 Z M 382.2 -15.8 L 382.2 -15.8 L 382.2 -15.8 Q 383.8 -14.7 383.8 -12.3 L 383.8 -12.3 L 383.8 -12.3 Q 383.8 -9.9 382.6 -8.4 L 382.6 -8.4 L 382.6 -8.4 Q 381.4 -6.8 379.4 -5.8 L 379.4 -5.8 L 379.4 -5.8 Q 375.3 -3.7 370.9 -3.7 L 370.9 -3.7 L 370.9 -3.7 Q 366.4 -3.7 363.8 -4.6 L 363.8 -4.6 L 363.8 -4.6 Q 361.3 -5.6 359.5 -7.4 L 359.5 -7.4 L 359.5 -7.4 Q 356.1 -10.8 356.1 -17 L 356.1 -17 L 356.1 -17 Q 356.1 -26.7 361.4 -32.5 L 361.4 -32.5 L 361.4 -32.5 Q 367 -38.9 376.8 -38.9 L 376.8 -38.9 L 376.8 -38.9 Q 382.9 -38.9 385.9 -36.3 L 385.9 -36.3 L 385.9 -36.3 Q 388.1 -34.4 388.1 -31.3 L 388.1 -31.3 L 388.1 -31.3 Q 388.1 -20 368.7 -20 L 368.7 -20 L 368.7 -20 Q 368.4 -18.3 368.4 -16.9 L 368.4 -16.9 L 368.4 -16.9 Q 368.4 -14 369.7 -12.9 L 369.7 -12.9 L 369.7 -12.9 Q 371 -11.7 373.5 -11.7 L 373.5 -11.7 L 373.5 -11.7 Q 375.9 -11.7 378.5 -12.9 L 378.5 -12.9 L 378.5 -12.9 Q 381.1 -14 382.2 -15.8 Z M 369.1 -22.8 L 369.1 -22.8 L 369.1 -22.8 Q 373.7 -22.8 376.3 -25.6 L 376.3 -25.6 L 376.3 -25.6 Q 378.9 -28.3 378.9 -32.5 L 378.9 -32.5 L 378.9 -32.5 Q 378.9 -34 378.4 -34.8 L 378.4 -34.8 L 378.4 -34.8 Q 377.8 -35.6 376.7 -35.6 L 376.7 -35.6 L 376.7 -35.6 Q 375.7 -35.6 374.7 -35.2 L 374.7 -35.2 L 374.7 -35.2 Q 373.8 -34.8 372.8 -33.4 L 372.8 -33.4 L 372.8 -33.4 Q 370.5 -30.2 369.1 -22.8 Z M 410.3 -22.9 L 410.3 -22.9 L 410.3 -22.9 Q 412.6 -27 412.6 -31.2 L 412.6 -31.2 L 412.6 -31.2 Q 412.6 -34 410.7 -34 L 410.7 -34 L 410.7 -34 Q 409.1 -34 407.5 -31.3 L 407.5 -31.3 L 407.5 -31.3 Q 405.9 -28.7 405.4 -25.3 L 405.4 -25.3 L 402 -5 L 388.8 -3.7 L 395.3 -37.6 L 405.9 -38.9 L 404.7 -32.4 L 404.7 -32.4 Q 407.8 -38.9 414.9 -38.9 L 414.9 -38.9 L 414.9 -38.9 Q 418.6 -38.9 420.6 -37 L 420.6 -37 L 420.6 -37 Q 422.6 -35 422.6 -31.1 L 422.6 -31.1 L 422.6 -31.1 Q 422.6 -27.2 420 -24.7 L 420 -24.7 L 420 -24.7 Q 417.4 -22.2 413 -22.2 L 413 -22.2 L 413 -22.2 Q 411.1 -22.2 410.3 -22.9 Z M 444 -12.2 L 444 -12.2 L 444 -12.2 Q 440.7 -8.7 434.6 -8.7 L 434.6 -8.7 L 434.6 -8.7 Q 427 -8.7 425.4 -14.3 L 425.4 -14.3 L 425.4 -14.3 Q 424.9 -16 424.9 -17.8 L 424.9 -17.8 L 424.9 -17.8 Q 424.9 -19.7 425.3 -21.6 L 425.3 -21.6 L 428.3 -37.6 L 441.3 -38.9 L 437.7 -20.3 L 437.7 -20.3 Q 437.6 -19.4 437.4 -18.5 L 437.4 -18.5 L 437.4 -18.5 Q 437.2 -17.6 437.2 -16.7 L 437.2 -16.7 L 437.2 -16.7 Q 437.2 -15.8 437.5 -15.2 L 437.5 -15.2 L 437.5 -15.2 Q 437.9 -14.6 438.3 -14.2 L 438.3 -14.2 L 438.3 -14.2 Q 439.1 -13.7 440.5 -13.7 L 440.5 -13.7 L 440.5 -13.7 Q 441.8 -13.7 443 -15.3 L 443 -15.3 L 443 -15.3 Q 444.2 -17 444.8 -19.9 L 444.8 -19.9 L 448.3 -37.6 L 460.9 -38.9 L 456.1 -13.7 L 456.1 -13.7 Q 453.7 -1.4 448.9 3.4 L 448.9 3.4 L 448.9 3.4 Q 446.4 5.9 443.1 6.9 L 443.1 6.9 L 443.1 6.9 Q 439.9 7.9 435.8 7.9 L 435.8 7.9 L 435.8 7.9 Q 429 7.9 425.2 5.8 L 425.2 5.8 L 425.2 5.8 Q 421.4 3.7 421.4 0.2 L 421.4 0.2 L 421.4 0.2 Q 421.4 -2.5 423.3 -4 L 423.3 -4 L 423.3 -4 Q 425.3 -5.5 428.4 -5.5 L 428.4 -5.5 L 428.4 -5.5 Q 431.1 -5.5 433.1 -4.3 L 433.1 -4.3 L 433.1 -4.3 Q 434.3 -3.6 434.9 -2.7 L 434.9 -2.7 L 434.9 -2.7 Q 433.4 -1.4 433.4 0.7 L 433.4 0.7 L 433.4 0.7 Q 433.4 3.5 436 3.5 L 436 3.5 L 436 3.5 Q 440.2 3.5 442.7 -6.2 L 442.7 -6.2 L 442.7 -6.2 Q 443.4 -9.1 444 -12.2 Z" fill="url(#editing-gradow-gradient)"></path></g></g><style>text {
  font-size: 64px;
  font-family: Arial Black;
  dominant-baseline: central;
  text-anchor: middle;
}</style></svg>